<svg width="100%" height="100%" viewBox="0 0 20 20" fill="none" xmlns="http://www.w3.org/2000/svg" fit="" preserveAspectRatio="xMidYMid meet" focusable="false">
<circle cx="10" cy="10" r="10" fill="#6478A6"/>
<path d="M7.71316 13.4539C8.12783 13.4539 8.46757 13.8009 8.46757 14.2295C8.46757 14.653 8.12783 15 7.71316 15C7.29348 15 6.95375 14.653 6.95375 14.2295C6.95375 13.8009 7.29348 13.4539 7.71316 13.4539ZM13.3338 13.4539C13.7485 13.4539 14.0882 13.8009 14.0882 14.2295C14.0882 14.653 13.7485 15 13.3338 15C12.9141 15 12.5744 14.653 12.5744 14.2295C12.5744 13.8009 12.9141 13.4539 13.3338 13.4539ZM5.38911 5.00006L5.44003 5.00437L6.6316 5.18755C6.80147 5.21868 6.92637 5.36104 6.94136 5.53452L7.03628 6.67749C7.05127 6.84129 7.18117 6.96375 7.34105 6.96375H14.0883C14.3931 6.96375 14.5929 7.0709 14.7927 7.30562C14.9926 7.54033 15.0276 7.8771 14.9826 8.18274L14.508 11.53C14.418 12.1734 13.8785 12.6475 13.2439 12.6475H7.79319C7.12871 12.6475 6.57914 12.1275 6.52418 11.454L6.06454 5.8917L5.31013 5.75904C5.11029 5.72332 4.97039 5.52432 5.00537 5.32022C5.04034 5.11152 5.23519 4.97324 5.44003 5.00437L5.38911 5.00006ZM12.4446 8.85118H11.0606C10.8508 8.85118 10.6859 9.01956 10.6859 9.23387C10.6859 9.44307 10.8508 9.61656 11.0606 9.61656H12.4446C12.6544 9.61656 12.8193 9.44307 12.8193 9.23387C12.8193 9.01956 12.6544 8.85118 12.4446 8.85118Z" fill="white"/>
</svg>