<svg width="100%" height="100%" viewBox="0 0 24 24" fill="none" xmlns="http://www.w3.org/2000/svg" fit="" preserveAspectRatio="xMidYMid meet" focusable="false">
<g clip-path="url('/producto/pack-shampoo-y-acondionador-elvive-color-vive/PACKCB13#clip0_1415_17')">
<mask id="mask0_1415_17" style="mask-type:luminance" maskUnits="userSpaceOnUse" x="0" y="0" width="24" height="24">
<path d="M24 0H0V24H24V0Z" fill="white"/>
</mask>
<g mask="url('/producto/pack-shampoo-y-acondionador-elvive-color-vive/PACKCB13#mask0_1415_17')">
<path d="M16.9143 9.45724C16.9143 9.0839 16.6117 8.78125 16.2383 8.78125C15.865 8.78125 15.5623 9.0839 15.5623 9.45724V10.1354C15.5623 11.5386 16.6999 12.6762 18.1031 12.6762H18.7812C19.1546 12.6762 19.4572 12.3735 19.4572 12.0002C19.4572 11.6268 19.1546 11.3242 18.7812 11.3242H18.1031C17.4466 11.3242 16.9143 10.7919 16.9143 10.1354V9.45724Z" fill="#243455"/>
<path fill-rule="evenodd" clip-rule="evenodd" d="M2 15.8144C2 17.1488 2.93509 18.2648 4.18574 18.5429C4.4638 19.7936 5.5798 20.7287 6.91422 20.7287C8.22483 20.7287 9.32476 19.8266 9.62703 18.6095H14.373C14.6753 19.8266 15.7752 20.7287 17.0858 20.7287C18.4203 20.7287 19.5364 19.7935 19.8144 18.5427C21.065 18.2644 22 17.1483 22 15.8139V12C22 11.8869 21.9716 11.7756 21.9175 11.6763L19.3745 7.01426C19.2561 6.79709 19.0285 6.66197 18.7811 6.66197H14.7951V5.81228C14.7951 4.40904 13.6575 3.27148 12.2543 3.27148H4.5408C3.13755 3.27148 2 4.40904 2 5.81228V15.8144ZM4.5408 4.62347C3.88423 4.62347 3.35198 5.15572 3.35198 5.81228V15.8144C3.35198 16.4118 3.71492 16.9243 4.23231 17.1437C4.57314 15.9846 5.64487 15.1385 6.91422 15.1385C8.22478 15.1385 9.32467 16.0405 9.62699 17.2575H14.3731C14.6754 16.0405 15.7753 15.1385 17.0858 15.1385C18.3551 15.1385 19.4268 15.9845 19.7677 17.1435C20.2851 16.924 20.648 16.4113 20.648 15.8139V12.1723L18.3798 8.01395H14.7951V13.6953C14.7951 14.0687 14.4924 14.3713 14.1191 14.3713C13.7458 14.3713 13.4431 14.0687 13.4431 13.6953V7.34339V7.33796V7.33253V5.81228C13.4431 5.15572 12.9109 4.62347 12.2543 4.62347H4.5408ZM8.35728 17.9335L8.35731 17.9273C8.35392 17.1332 7.70913 16.4905 6.91422 16.4905C6.11721 16.4905 5.47111 17.1366 5.47111 17.9336C5.47111 18.7306 6.11721 19.3767 6.91422 19.3767C7.70916 19.3767 8.35398 18.7339 8.35731 17.9398L8.35728 17.9335ZM15.6427 17.9336C15.6427 17.1366 16.2888 16.4905 17.0858 16.4905C17.8828 16.4905 18.5289 17.1366 18.5289 17.9336C18.5289 18.7306 17.8828 19.3767 17.0858 19.3767C16.2888 19.3767 15.6427 18.7306 15.6427 17.9336Z" fill="#243455"/>
</g>
</g>
<defs>
<clipPath id="clip0_1415_17">
<rect width="24" height="24" fill="white"/>
</clipPath>
</defs>
</svg>