<svg width="100%" height="100%" viewBox="0 0 24 24" fill="none" xmlns="http://www.w3.org/2000/svg" fit="" preserveAspectRatio="xMidYMid meet" focusable="false">
<path fill-rule="evenodd" clip-rule="evenodd" d="M20.4727 13.5503V17.2773C20.4727 19.3333 18.7621 21 16.6521 21H7.29625C5.18616 21 3.4756 19.3333 3.4756 17.2773V13.5131C3.35906 13.4279 3.24723 13.3359 3.1408 13.2375C2.41548 12.5666 2 11.6482 2 10.6818V9.25888C2 9.2216 2.00279 9.18496 2.00819 9.14914C2.00139 9.06234 2.01064 8.97288 2.03804 8.88455L3.04245 5.64587C3.52968 4.07481 5.01536 3 6.69976 3H17.2017C18.8557 3 20.3218 4.03698 20.8343 5.56925L21.9381 8.86963C21.9599 8.93488 21.9717 9.00097 21.9744 9.06631C21.9911 9.12776 22 9.19231 22 9.25888V10.6818C22 11.6482 21.5845 12.5666 20.8592 13.2375C20.7371 13.3504 20.608 13.4547 20.4727 13.5503ZM4.4661 6.06505C4.76367 5.10554 5.67103 4.44911 6.69976 4.44911H17.2017C18.2118 4.44911 19.1073 5.08243 19.4203 6.01825L20.4695 9.15536C20.4647 9.1892 20.4622 9.22376 20.4622 9.25888V10.6818C20.4622 11.2249 20.2293 11.7541 19.8005 12.1507C19.3704 12.5485 18.7788 12.7784 18.1541 12.7784C17.5293 12.7784 16.9378 12.5485 16.5076 12.1507C16.0788 11.7541 15.8459 11.2249 15.8459 10.6818V10.2075C15.8459 10.1532 15.84 10.1002 15.8288 10.0492C15.7542 9.71147 15.446 9.45827 15.077 9.45827C14.7055 9.45827 14.3954 9.71508 14.3238 10.0565C14.3135 10.1052 14.3081 10.1557 14.3081 10.2074V10.6817C14.3081 11.2248 14.0752 11.7541 13.6464 12.1507C13.2163 12.5485 12.6247 12.7784 12 12.7784C11.3753 12.7784 10.7837 12.5485 10.3536 12.1507C9.92477 11.7541 9.69187 11.2248 9.69187 10.6817V10.2075C9.69187 9.79372 9.34762 9.45827 8.92297 9.45827C8.52709 9.45827 8.20109 9.74978 8.15873 10.1245C8.156 10.1486 8.15445 10.1731 8.15413 10.1978L8.15407 10.2074V10.6817C8.15407 11.2248 7.92117 11.7541 7.49238 12.1507C7.06223 12.5485 6.47065 12.7784 5.84593 12.7784C5.22122 12.7784 4.62964 12.5485 4.19949 12.1507C3.7707 11.7541 3.5378 11.2249 3.5378 10.6818V9.25888C3.5378 9.20732 3.53246 9.15698 3.52228 9.10835L4.4661 6.06505ZM15.077 12.8387C14.9642 12.9793 14.84 13.1127 14.7051 13.2374C13.9812 13.907 13.0074 14.2768 12 14.2768C10.9926 14.2768 10.0188 13.907 9.29487 13.2374C9.15996 13.1127 9.03577 12.9793 8.92298 12.8387C8.81019 12.9793 8.68599 13.1127 8.55107 13.2375C7.82711 13.907 6.85338 14.2768 5.84593 14.2768C5.54671 14.2768 5.25045 14.2442 4.96283 14.1808V17.2773C4.96283 18.5329 6.00754 19.5509 7.29625 19.5509H16.6521C17.9408 19.5509 18.9855 18.5329 18.9855 17.2773V14.1918C18.7141 14.248 18.4354 14.2768 18.1541 14.2768C17.1466 14.2768 16.1729 13.907 15.4489 13.2375C15.314 13.1127 15.1898 12.9793 15.077 12.8387Z" fill="#243455"/>
</svg>